<?xml version="1.0" standalone="no"?>
<!DOCTYPE svg PUBLIC "-//W3C//DTD SVG 20010904//EN"
 "http://www.w3.org/TR/2001/REC-SVG-20010904/DTD/svg10.dtd">
<svg version="1.0" xmlns="http://www.w3.org/2000/svg"
 width="720.000000pt" height="720.000000pt" viewBox="0 0 720.000000 720.000000"
 preserveAspectRatio="xMidYMid meet">
<metadata>
Created by potrace 1.11, written by Peter Selinger 2001-2013
</metadata>
<g transform="translate(0.000000,720.000000) scale(0.100000,-0.100000)"
fill="#000000" stroke="none">
<path d="M3380 6924 c-691 -62 -1254 -273 -1775 -664 -585 -439 -1009 -1056
-1209 -1760 -43 -152 -79 -331 -103 -505 -24 -182 -24 -618 0 -800 52 -392
152 -724 317 -1060 105 -213 195 -361 329 -539 550 -731 1342 -1190 2266
-1313 182 -24 618 -24 800 0 605 81 1127 292 1600 647 585 439 1009 1056 1209
1760 89 312 120 547 120 905 0 358 -31 593 -120 905 -82 288 -221 605 -374
849 -536 861 -1419 1426 -2430 1556 -119 16 -530 28 -630 19z m-415 -983 c155
-68 225 -254 152 -403 -34 -69 -102 -132 -169 -155 -45 -17 -48 -20 -48 -53 0
-69 31 -227 65 -327 65 -194 169 -366 289 -481 122 -116 213 -155 381 -166
219 -14 429 -110 588 -270 43 -44 68 -63 71 -55 2 8 7 311 10 674 l5 660 -48
18 c-26 9 -69 35 -94 57 -165 146 -124 409 78 502 73 33 191 32 260 -2 191
-94 233 -339 84 -488 -41 -42 -115 -82 -149 -82 -11 0 -23 -6 -25 -12 -11 -28
-22 -1545 -13 -1601 9 -53 12 -57 46 -68 216 -71 283 -349 122 -509 -148 -149
-408 -105 -496 85 -34 71 -33 189 0 261 36 76 137 164 190 164 25 0 28 18 11
82 -40 156 -171 297 -359 388 -104 50 -177 68 -318 79 -185 15 -298 69 -438
210 -135 135 -234 298 -305 502 -36 105 -75 296 -75 373 0 40 -1 42 -42 54
-54 17 -112 60 -149 110 -122 167 -44 403 155 468 57 19 160 12 221 -15z
m-959 -3469 c6 -4 71 -88 144 -187 72 -99 135 -181 139 -183 4 -1 73 83 152
188 111 147 149 190 164 188 44 -6 26 -41 -127 -241 l-153 -202 -5 -230 c-5
-215 -6 -230 -24 -233 -10 -2 -22 2 -27 10 -5 7 -9 111 -9 231 l0 217 -146
197 c-80 108 -148 202 -151 209 -12 32 15 55 43 36z m1128 -34 c134 -367 297
-842 292 -854 -4 -9 -15 -14 -28 -12 -19 2 -30 21 -65 118 l-41 115 -198 0
-198 0 -39 -105 c-21 -58 -44 -111 -52 -119 -17 -18 -45 -7 -45 17 0 17 300
848 315 872 15 25 44 9 59 -32z m563 -5 c33 -27 108 -88 167 -138 59 -49 111
-91 115 -93 3 -1 82 61 175 138 92 77 171 140 174 140 31 -1 32 -17 30 -461
l-3 -444 -25 0 -25 0 -3 398 c-1 233 -6 397 -11 395 -5 -2 -73 -56 -151 -120
-77 -65 -149 -118 -158 -118 -9 0 -82 54 -162 120 -80 66 -148 120 -152 120
-4 0 -9 -179 -10 -397 l-3 -398 -25 0 -25 0 -3 439 c-2 430 0 466 29 466 4 0
34 -21 66 -47z m1216 23 c85 -41 130 -111 131 -201 0 -68 -11 -94 -61 -146
l-35 -36 30 -11 c43 -15 108 -77 131 -126 24 -48 28 -127 9 -187 -16 -57 -70
-114 -136 -145 -54 -26 -66 -28 -240 -32 -136 -3 -186 -1 -197 8 -13 11 -15
73 -15 450 0 341 3 440 13 444 6 3 84 4 172 3 131 -3 167 -6 198 -21z"/>
<path d="M3011 2122 c-46 -125 -86 -233 -88 -239 -4 -10 34 -13 171 -13 l175
0 -45 128 c-25 70 -62 174 -81 232 -19 58 -38 108 -42 112 -4 4 -44 -95 -90
-220z"/>
<path d="M4590 2025 l0 -397 163 3 c155 4 164 5 208 31 90 53 129 143 99 232
-24 73 -127 136 -223 136 -66 0 -89 53 -28 66 14 3 35 7 47 9 29 6 84 45 107
77 27 36 27 104 1 149 -11 19 -40 45 -65 59 -40 22 -57 25 -176 28 l-133 4 0
-397z"/>
</g>
</svg>
